<?xml version="1.0" standalone="no"?>
<!DOCTYPE svg PUBLIC "-//W3C//DTD SVG 20010904//EN"
 "http://www.w3.org/TR/2001/REC-SVG-20010904/DTD/svg10.dtd">
<svg version="1.0" xmlns="http://www.w3.org/2000/svg"
 width="200.000000pt" height="200.000000pt" viewBox="0 0 200.000000 200.000000"
 preserveAspectRatio="xMidYMid meet">
<metadata>
Created by potrace 1.11, written by Peter Selinger 2001-2013
</metadata>
<g transform="translate(0.000000,200.000000) scale(0.100000,-0.100000)"
fill="#000000" stroke="none">
<path d="M946 1682 c-45 -74 -128 -249 -151 -317 -42 -126 -27 -224 45 -289
49 -44 92 -56 208 -54 81 1 98 5 142 30 57 33 96 91 104 157 9 84 -52 256
-163 454 -35 64 -45 76 -57 66 -8 -6 -14 -17 -14 -23 0 -6 -7 -19 -14 -29 -13
-16 -16 -14 -38 24 l-25 42 -37 -61z"/>
<path d="M1336 641 c-26 -125 -45 -171 -70 -171 -33 0 -35 24 -11 135 13 61
24 116 25 123 0 8 -15 12 -45 12 -25 0 -45 -5 -45 -10 0 -7 -6 -7 -19 0 -32
16 -76 12 -112 -12 -65 -44 -110 -178 -85 -255 19 -57 100 -66 150 -16 20 20
26 22 26 10 0 -9 12 -24 26 -34 25 -16 30 -16 70 -1 51 18 50 22 26 -88 l-18
-81 40 10 c52 12 61 24 76 102 l12 63 28 -10 c37 -12 99 4 128 35 67 71 81
246 22 277 -24 13 -66 13 -91 0 -16 -9 -19 -7 -19 10 0 12 -7 20 -17 21 -10 0
-30 2 -44 3 -26 2 -27 -1 -53 -123z m-163 47 c4 -13 -28 -172 -38 -188 -14
-23 -43 -30 -59 -14 -43 42 18 214 75 214 9 0 19 -6 22 -12z m330 -70 c-1 -46
-7 -78 -20 -100 -19 -32 -66 -59 -80 -45 -4 4 -1 36 6 70 7 34 15 75 18 91 6
39 23 56 53 53 24 -2 25 -4 23 -69z"/>
<path d="M1688 763 c-16 -2 -28 -7 -28 -10 0 -3 -23 -113 -51 -245 -28 -132
-48 -242 -46 -245 6 -5 69 6 84 15 6 4 14 25 17 47 4 22 11 55 17 72 8 26 14
31 27 24 26 -13 81 -5 111 16 14 11 37 40 51 64 33 58 36 184 6 218 -20 22
-89 30 -101 11 -10 -16 -28 -12 -21 5 4 12 -24 39 -36 34 -2 -1 -15 -4 -30 -6z
m120 -123 c6 -84 -36 -170 -84 -170 -29 0 -30 8 -5 116 22 100 26 106 59 102
24 -3 27 -8 30 -48z"/>
<path d="M449 734 c-14 -17 -2 -48 20 -50 6 -1 13 -2 15 -3 9 -2 -16 -89 -39
-137 -25 -50 -61 -79 -83 -65 -13 7 -11 21 18 158 11 51 20 95 20 98 0 3 -20
5 -44 5 -50 0 -46 7 -71 -115 -9 -44 -21 -93 -27 -108 -13 -34 -42 -52 -56
-34 -11 14 -10 22 18 146 11 50 20 95 20 101 0 5 -20 10 -44 10 -51 0 -45 10
-75 -132 -26 -122 -26 -139 1 -173 18 -23 26 -26 56 -21 19 3 45 15 57 26 19
18 24 19 32 7 23 -40 101 -44 152 -8 66 47 129 251 91 296 -16 20 -44 19 -61
-1z"/>
<path d="M654 735 c-73 -31 -118 -112 -118 -212 -1 -78 19 -103 85 -107 57 -4
99 14 149 66 48 50 36 63 -17 19 -48 -39 -109 -44 -122 -9 -13 36 -2 56 35 63
40 7 103 66 106 98 2 38 -2 62 -15 74 -18 18 -70 22 -103 8z m67 -35 c1 -5 2
-16 3 -22 5 -34 -48 -98 -81 -98 -17 0 20 100 44 118 20 15 33 15 34 2z"/>
<path d="M806 594 c-12 -30 -5 -34 59 -34 36 0 65 4 65 9 0 5 3 16 6 25 5 14
-4 16 -59 16 -50 0 -66 -4 -71 -16z"/>
</g>
</svg>
