<svg width="32" height="32" viewBox="0 0 32 32" fill="none" xmlns="http://www.w3.org/2000/svg">
<path d="M14.72 23.04C10.112 23.04 6.40002 19.328 6.40002 14.72C6.40002 10.112 10.112 6.39999 14.72 6.39999C19.328 6.39999 23.04 10.112 23.04 14.72C23.04 19.328 19.328 23.04 14.72 23.04ZM14.72 7.67999C10.816 7.67999 7.68002 10.816 7.68002 14.72C7.68002 18.624 10.816 21.76 14.72 21.76C18.624 21.76 21.76 18.624 21.76 14.72C21.76 10.816 18.624 7.67999 14.72 7.67999Z" fill="#ffffff" fill-opacity=""/>
<path d="M20.9165 20.0109L26.6637 25.7581L25.7587 26.663L20.0115 20.9158L20.9165 20.0109Z" fill="#ffffff" fill-opacity=""/>
</svg>
