<?xml version="1.0" standalone="no"?>
<!DOCTYPE svg PUBLIC "-//W3C//DTD SVG 20010904//EN"
 "http://www.w3.org/TR/2001/REC-SVG-20010904/DTD/svg10.dtd">
<svg version="1.0" xmlns="http://www.w3.org/2000/svg"
 width="444.000000pt" height="444.000000pt" viewBox="0 0 444.000000 444.000000"
 preserveAspectRatio="xMidYMid meet">
<metadata>
Created by potrace 1.11, written by Peter Selinger 2001-2013
</metadata>
<g transform="translate(0.000000,444.000000) scale(0.100000,-0.100000)"
fill="#000000" stroke="none">
<path d="M1541 4008 c-13 -29 -29 -66 -36 -83 -13 -29 -97 -235 -116 -283 -6
-15 -5 -21 1 -17 16 10 273 15 313 6 36 -9 37 -8 31 12 -4 12 -13 35 -21 50
-16 31 -93 220 -128 310 l-22 59 -22 -54z"/>
<path d="M1022 3717 l3 -233 85 42 c86 42 198 84 225 84 8 0 15 2 15 5 0 3
-74 80 -165 170 l-165 165 2 -233z"/>
<path d="M1937 3785 c-91 -91 -163 -166 -159 -169 4 -2 34 -11 67 -21 70 -20
169 -61 207 -87 14 -10 30 -18 35 -18 5 0 10 100 11 222 2 122 5 225 8 230 14
23 -16 -6 -169 -157z"/>
<path d="M564 3633 c4 -10 46 -107 93 -215 82 -190 87 -197 101 -175 21 30
170 179 206 203 l28 20 -138 59 c-77 32 -174 73 -218 92 -65 27 -77 30 -72 16z"/>
<path d="M2430 3594 c-58 -24 -118 -51 -135 -58 -16 -8 -60 -26 -97 -41 -38
-15 -68 -28 -68 -30 0 -1 17 -14 38 -27 42 -29 141 -124 179 -174 14 -19 28
-34 32 -34 3 0 15 21 25 48 11 26 32 75 47 109 16 34 40 91 55 125 15 35 33
78 41 96 17 42 13 41 -117 -14z"/>
<path d="M1390 3531 c-189 -37 -338 -117 -475 -255 -173 -174 -259 -390 -254
-633 4 -187 78 -397 183 -518 31 -36 31 -36 5 -87 l-21 -41 -31 39 c-18 21
-37 45 -44 53 -10 14 -13 13 -21 -9 -6 -14 -47 -108 -91 -209 -45 -101 -81
-185 -81 -187 0 -5 26 2 47 14 38 21 36 14 -10 -40 -72 -85 -145 -234 -162
-330 -22 -122 -23 -161 -10 -278 21 -185 121 -360 285 -501 75 -63 245 -139
354 -157 23 -4 590 -7 1261 -7 l1220 0 85 23 c308 82 544 311 636 617 34 114
43 321 18 425 -9 36 -17 70 -18 77 -1 7 -5 16 -9 19 -4 4 -7 14 -7 21 0 22
-60 142 -103 206 -21 32 -66 87 -99 122 -50 54 -87 82 -222 170 -10 7 -17 34
-21 90 -18 240 -125 481 -286 644 -50 50 -156 136 -203 163 -146 85 -341 142
-488 141 -21 0 -38 4 -38 8 0 3 18 23 40 43 l40 36 -27 1 c-78 1 -438 -3 -441
-5 -2 -2 13 -33 33 -68 l35 -65 -39 -15 c-38 -15 -61 -10 -61 15 0 26 -103
163 -179 237 -124 121 -267 200 -430 237 -97 22 -269 24 -371 4z"/>
<path d="M264 3189 c-2 -3 36 -43 84 -89 48 -46 121 -116 163 -157 l75 -73 32
95 c18 52 48 122 67 154 19 33 35 62 35 64 0 3 -64 6 -142 7 -79 1 -181 2
-226 3 -46 1 -86 -1 -88 -4z"/>
<path d="M362 2753 c-117 -48 -209 -90 -205 -94 8 -7 408 -169 418 -169 3 0 3
30 0 68 -9 103 -10 193 -1 240 4 23 6 42 4 41 -1 0 -99 -39 -216 -86z"/>
<path d="M534 2406 c-28 -28 -101 -99 -163 -158 -61 -58 -111 -109 -111 -112
0 -6 449 0 456 7 3 2 -13 38 -35 78 -22 41 -52 110 -66 154 -15 44 -28 80 -28
81 -1 1 -25 -22 -53 -50z"/>
</g>
</svg>
