<svg width="24" height="34" viewBox="0 0 24 34" fill="none" xmlns="http://www.w3.org/2000/svg">
<path d="M24 11.9C24 10.3373 23.6896 8.78984 23.0866 7.34607C22.4835 5.90229 21.5996 4.59045 20.4853 3.48543C19.371 2.38041 18.0481 1.50386 16.5922 0.905834C15.1363 0.307802 13.5759 0 12 0C10.4241 0 8.86371 0.307802 7.4078 0.905834C5.95189 1.50386 4.62902 2.38041 3.51472 3.48543C2.40042 4.59045 1.5165 5.90229 0.913445 7.34607C0.310389 8.78984 -2.34822e-08 10.3373 0 11.9C0 14.2579 0.702857 16.4509 1.89429 18.3005H1.88057C5.92629 24.582 12 34 12 34L22.1194 18.3005H22.1074C23.3424 16.3903 23.9992 14.1691 24 11.9ZM12 17C10.636 17 9.32792 16.4627 8.36345 15.5062C7.39898 14.5498 6.85714 13.2526 6.85714 11.9C6.85714 10.5474 7.39898 9.25019 8.36345 8.29376C9.32792 7.33732 10.636 6.8 12 6.8C13.364 6.8 14.6721 7.33732 15.6365 8.29376C16.601 9.25019 17.1429 10.5474 17.1429 11.9C17.1429 13.2526 16.601 14.5498 15.6365 15.5062C14.6721 16.4627 13.364 17 12 17Z" fill="white"/>
</svg>
