<svg width="40" height="40" viewBox="0 0 40 40" fill="none" xmlns="http://www.w3.org/2000/svg">
<path d="M33.8844 23.7844L39.5562 21.6469L34.3719 18.5L38.8875 14.4562L32.9187 13.3969L35.6719 7.99375L29.7219 9.1625L30.3375 3.13125L25.2156 6.375L23.6094 0.531247L20 5.4L16.3906 0.528122L14.7875 6.37187L9.66248 3.13437L10.2781 9.16562L4.3281 7.99687L7.0781 13.4L1.10935 14.4594L5.6281 18.5L0.443726 21.6469L6.1156 23.7844L2.42185 28.5875L8.48123 28.5312L6.76873 34.3469L12.4031 32.1062L12.9062 38.1469L17.3469 34.0219L20 39.4719L22.6531 34.0219L27.0969 38.1469L27.6 32.1062L33.2312 34.3469L31.5187 28.5312L37.5812 28.5875L33.8844 23.7844ZM20.0031 33.3312C12.6406 33.3312 6.67185 27.3625 6.67185 20C6.67185 12.6375 12.6406 6.66875 20.0031 6.66875C27.3625 6.66875 33.3312 12.6375 33.3312 20C33.3312 27.3625 27.3625 33.3281 20.0031 33.3312Z" fill="#FCC21B"/>
<path d="M20 39.7969C19.875 39.7969 19.7625 39.725 19.7063 39.6125L17.2469 34.5563L13.1281 38.3812C13.0375 38.4688 12.9063 38.4937 12.7906 38.4469C12.6719 38.4031 12.5938 38.2938 12.5813 38.1687L12.1156 32.5656L6.89063 34.6437C6.77501 34.6906 6.64376 34.6656 6.55001 34.5812C6.45626 34.4969 6.42188 34.3687 6.45626 34.2469L8.04376 28.8562L2.42501 28.9156H2.42188C2.29688 28.9156 2.18438 28.8469 2.12813 28.7344C2.07188 28.6219 2.08438 28.4875 2.16251 28.3906L5.58751 23.9344L0.331256 21.95C0.215631 21.9062 0.131256 21.8 0.121881 21.675C0.109381 21.55 0.171881 21.4312 0.278131 21.3656L5.08438 18.45L0.893756 14.7C0.803131 14.6156 0.762506 14.4875 0.796881 14.3656C0.831256 14.2437 0.931256 14.1562 1.05313 14.1344L6.58751 13.1531L4.03751 8.14375C3.97813 8.03125 3.99376 7.9 4.06876 7.8C4.14376 7.7 4.27188 7.65 4.39063 7.67812L9.90938 8.7625L9.33751 3.16875C9.32501 3.04375 9.38751 2.925 9.49063 2.85937C9.60001 2.79375 9.73438 2.79375 9.83751 2.85937L14.5906 5.8625L16.0781 0.443749C16.1094 0.324999 16.2125 0.231249 16.3344 0.209374C16.4625 0.184374 16.5813 0.234374 16.6563 0.334374L20 4.85L23.3469 0.334374C23.4219 0.234374 23.55 0.184374 23.6688 0.209374C23.7906 0.231249 23.8906 0.321874 23.925 0.443749L25.4125 5.8625L30.1656 2.85937C30.2719 2.79062 30.4063 2.79375 30.5125 2.85937C30.6188 2.925 30.6781 3.04687 30.6656 3.16875L30.0938 8.7625L35.6094 7.67812C35.7313 7.65 35.8563 7.70312 35.9313 7.8C36.0063 7.9 36.0188 8.03437 35.9625 8.14375L33.4125 13.1531L38.9469 14.1344C39.0688 14.1562 39.1688 14.2469 39.2063 14.3656C39.2406 14.4844 39.2031 14.6156 39.1094 14.7L34.9188 18.45L39.7281 21.3656C39.8344 21.4312 39.8969 21.55 39.8844 21.675C39.875 21.8 39.7938 21.9062 39.675 21.95L34.4156 23.9312L37.8438 28.3875C37.9188 28.4875 37.9344 28.6219 37.875 28.7313C37.8219 28.8406 37.7063 28.9125 37.5844 28.9125H37.5813L31.9594 28.8594L33.5219 34.1594C33.5563 34.2125 33.5781 34.275 33.5781 34.3438C33.5781 34.525 33.4313 34.6719 33.2531 34.6719H33.2375C33.1969 34.6719 33.1563 34.6625 33.1156 34.65L27.8938 32.5719L27.4281 38.175C27.4188 38.3 27.3375 38.4062 27.2188 38.4531C27.1031 38.5 26.9719 38.475 26.8813 38.3875L22.7594 34.5625L20.3 39.6187C20.2375 39.725 20.125 39.7969 20 39.7969ZM17.3469 33.6937C17.3688 33.6937 17.3875 33.6969 17.4063 33.7C17.5094 33.7187 17.5969 33.7844 17.6406 33.8781L20 38.725L22.3594 33.8781C22.4031 33.7844 22.4906 33.7187 22.5938 33.7C22.6906 33.6812 22.8 33.7125 22.875 33.7812L26.8281 37.45L27.275 32.0781C27.2793 32.0273 27.2955 31.9782 27.3223 31.9347C27.3491 31.8912 27.3856 31.8547 27.4291 31.8279C27.4726 31.8012 27.5217 31.785 27.5725 31.7807C27.6234 31.7764 27.6745 31.7841 27.7219 31.8031L32.7313 33.7969L31.2063 28.625C31.1781 28.525 31.1969 28.4187 31.2594 28.3344C31.3188 28.2531 31.4156 28.2062 31.5188 28.2062H31.5219L36.9125 28.2562L33.625 23.9812C33.5594 23.9 33.5406 23.7937 33.5688 23.6937C33.5969 23.5937 33.6719 23.5125 33.7688 23.4781L38.8125 21.5781L34.2031 18.7812C34.1156 18.7281 34.0563 18.6344 34.0469 18.5312C34.0406 18.4281 34.0781 18.3281 34.1563 18.2562L38.1719 14.6625L32.8656 13.7188C32.7625 13.7 32.6781 13.6344 32.6313 13.5437C32.5844 13.45 32.5844 13.3406 32.6313 13.25L35.0813 8.44375L29.7906 9.48437C29.6906 9.50625 29.5844 9.475 29.5094 9.40625C29.4313 9.3375 29.3938 9.23437 29.4031 9.13125L29.95 3.76875L25.3938 6.65C25.3031 6.70312 25.1938 6.71562 25.1 6.67812C25.0524 6.65951 25.0098 6.63004 24.9757 6.59206C24.9415 6.55408 24.9167 6.50865 24.9031 6.45937L23.4719 1.2625L20.2625 5.59375C20.1375 5.75937 19.8625 5.75937 19.7375 5.59375L16.5281 1.2625L15.1031 6.45937C15.0893 6.50854 15.0643 6.55383 15.03 6.59165C14.9957 6.62948 14.9531 6.65879 14.9055 6.67729C14.8579 6.69578 14.8066 6.70294 14.7558 6.69821C14.7049 6.69347 14.6559 6.67697 14.6125 6.65L10.0563 3.76875L10.6031 9.13125C10.6125 9.23437 10.575 9.33437 10.4969 9.40625C10.4219 9.475 10.3125 9.50625 10.2156 9.48437L4.92501 8.44375L7.36876 13.25C7.39151 13.2955 7.40336 13.3456 7.40336 13.3965C7.40337 13.4473 7.39153 13.4975 7.36879 13.543C7.34604 13.5885 7.31302 13.628 7.27233 13.6585C7.23165 13.689 7.18442 13.7097 7.13438 13.7188L1.82813 14.6625L5.84376 18.2562C5.88158 18.2907 5.91087 18.3335 5.9293 18.3812C5.94774 18.4289 5.95481 18.4803 5.94995 18.5312C5.9451 18.5822 5.92846 18.6313 5.90135 18.6747C5.87424 18.7181 5.83741 18.7546 5.79376 18.7812L1.18751 21.5781L6.23126 23.4781C6.32813 23.5156 6.40313 23.5937 6.43126 23.6937C6.45938 23.7937 6.43751 23.9 6.37813 23.9812L3.09063 28.2562L8.47813 28.2062H8.48126C8.58438 28.2062 8.68126 28.2531 8.74063 28.3344C8.80313 28.4187 8.82188 28.525 8.79376 28.625L7.27188 33.7937L12.2813 31.8C12.3781 31.7625 12.4875 31.7719 12.575 31.825C12.6656 31.8781 12.7188 31.9719 12.7281 32.075L13.175 37.4469L17.125 33.7812C17.1875 33.725 17.2656 33.6937 17.3469 33.6937ZM20.0031 33.6562C12.4719 33.6562 6.34688 27.5281 6.34376 20C6.34376 12.4687 12.4719 6.34375 20.0031 6.34375C27.5313 6.34375 33.6594 12.4687 33.6594 20C33.6594 27.5281 27.5313 33.6562 20.0031 33.6562ZM20.0031 6.99687C12.8344 6.99687 7.00001 12.8312 6.99688 20C6.99688 27.1687 12.8313 33.0031 20.0031 33.0031C27.1719 33.0031 33.0031 27.1687 33.0031 20C33.0031 12.8312 27.1719 6.99687 20.0031 6.99687Z" fill="#FCC21B"/>
<path d="M20 31.6688C26.4445 31.6688 31.6687 26.4445 31.6687 20C31.6687 13.5555 26.4445 8.33125 20 8.33125C13.5555 8.33125 8.33124 13.5555 8.33124 20C8.33124 26.4445 13.5555 31.6688 20 31.6688Z" fill="#FCC21B"/>
<path d="M20.2875 26.8156C19.5688 26.8219 18.8375 26.6656 18.2438 26.3687C17.9469 26.2219 17.6406 26.0219 17.4031 25.7906C17.1656 25.5562 16.9344 25.1437 17.2156 24.8594C17.4438 24.6312 17.775 24.8594 17.9938 24.9781C18.6125 25.3156 19.3188 25.5625 20.0344 25.5937C20.8281 25.6281 21.4719 25.3875 22.1563 25.0281C22.35 24.925 22.7375 24.675 22.9656 24.8125C23.5344 25.1594 22.8594 25.7812 22.5656 26.0281C21.9344 26.5625 21.1219 26.8062 20.2875 26.8156Z" fill="#2F2F2F"/>
<path d="M20.0281 23.9094C21.3281 23.9094 22.0406 22.8313 21.5563 22.5906C21.0688 22.35 21.0219 23.2219 20.0281 23.2219C19.0344 23.2219 18.9875 22.35 18.5 22.5906C18.0156 22.8313 18.7313 23.9094 20.0281 23.9094Z" fill="#2F2F2F"/>
<path d="M16.0781 19.9464C16.0781 20.9214 15.3563 21.7152 14.4719 21.7152C13.5906 21.7152 12.8688 20.9214 12.8688 19.9464C12.8688 18.9683 13.5875 18.1777 14.4719 18.1777C15.3563 18.1745 16.0781 18.9683 16.0781 19.9464Z" fill="#2F2F2F"/>
<path d="M25.5282 21.7125C26.4136 21.7125 27.1313 20.9206 27.1313 19.9438C27.1313 18.9669 26.4136 18.175 25.5282 18.175C24.6428 18.175 23.925 18.9669 23.925 19.9438C23.925 20.9206 24.6428 21.7125 25.5282 21.7125Z" fill="#2F2F2F"/>
</svg>
