<svg width="64" height="69" viewBox="0 0 64 69" fill="none" xmlns="http://www.w3.org/2000/svg">
<path d="M21.0398 49.4735C20.2905 51.3384 20.9259 53.2604 22.4636 53.7691C23.9988 54.2744 25.8555 53.1737 26.6047 51.3076C27.4856 49.1119 27.5464 46.1064 26.9477 42.6206C24.0596 44.9041 21.9232 47.2766 21.0398 49.4735Z" fill="#50ABFE"/>
<path d="M38.2155 51.3064C39.0989 49.1107 39.1572 46.1052 38.5585 42.6194C35.6704 44.9041 33.5327 47.2766 32.6519 49.4735C31.9001 51.3384 32.5379 53.2603 34.0757 53.7691C35.6134 54.2744 37.4676 53.1725 38.2155 51.3064Z" fill="#50ABFE"/>
<path d="M50.1719 42.6194C47.2838 44.9041 45.1461 47.2766 44.2627 49.4735C43.5147 51.3384 44.1514 53.2603 45.6866 53.7691C47.2243 54.2743 49.0784 53.1736 49.8277 51.3076C50.7098 49.1119 50.7718 46.1063 50.1719 42.6194Z" fill="#50ABFE"/>
<path d="M9.42765 49.4735C8.67966 51.3384 9.31627 53.2604 10.8515 53.7691C12.3892 54.2744 14.2434 53.1737 14.9926 51.3076C15.8747 49.1119 15.9342 46.1064 15.3356 42.6206C12.4487 44.9041 10.3123 47.2766 9.42765 49.4735Z" fill="#50ABFE"/>
<path d="M11.9259 64.0199C11.178 65.8848 11.812 67.8067 13.3498 68.3143C14.8875 68.8219 16.7416 67.7201 17.4909 65.8551C18.3718 63.6583 18.4325 60.6527 17.8339 57.167C14.9457 59.4505 12.8094 61.823 11.9259 64.0199Z" fill="#50ABFE"/>
<path d="M29.1018 65.854C29.9865 63.6571 30.0434 60.6516 29.4448 57.1658C26.5592 59.4505 24.4202 61.823 23.5381 64.0198C22.7876 65.8848 23.4255 67.8067 24.9619 68.3143C26.4984 68.8219 28.3551 67.7189 29.1018 65.854Z" fill="#50ABFE"/>
<path d="M41.0543 57.1658C38.1687 59.4505 36.0298 61.823 35.1502 64.0198C34.3984 65.8848 35.0363 67.8067 36.5727 68.3143C38.1092 68.8219 39.9646 67.72 40.7126 65.8551C41.596 63.6583 41.6555 60.6527 41.0543 57.1658Z" fill="#50ABFE"/>
<path d="M0.313912 64.0199C-0.435338 65.8848 0.202536 67.8067 1.73901 68.3143C3.27547 68.8219 5.13088 67.7201 5.87887 65.8551C6.76227 63.6583 6.82176 60.6527 6.22185 57.167C3.33496 59.4505 1.19479 61.823 0.313912 64.0199Z" fill="#50ABFE"/>
<path d="M39.8697 3.61806C46.3801 3.61806 51.6577 8.37219 51.6577 14.2361C51.6577 14.5213 51.6337 14.7996 51.6109 15.0768C48.9696 15.2574 46.4629 16.1992 44.4614 17.763C45.9562 16.9874 47.651 16.5795 49.3758 16.5801C51.1038 16.5776 52.8019 16.9868 54.2978 17.7664C57.2619 19.3051 59.2603 22.1749 59.2603 25.4759C59.2603 29.7019 55.9836 33.2367 51.5957 34.1435C50.8686 34.2982 50.1242 34.3774 49.3771 34.3796H15.0141C14.157 34.3791 13.3057 34.2539 12.493 34.0089C10.8892 33.5321 9.49297 32.6118 8.50279 31.3789C7.51261 30.146 6.97884 28.6632 6.97736 27.1412C6.97736 24.9637 8.04934 23.0155 9.73642 21.6924C10.5078 21.0842 11.4021 20.6156 12.3702 20.3123C13.2199 20.0417 14.1141 19.9021 15.0153 19.8993C16.2453 19.8995 17.4587 20.1545 18.5619 20.6446C19.665 21.1347 20.6284 21.8468 21.3776 22.7258L21.4498 22.7235C20.5883 21.2949 19.3507 20.0789 17.8456 19.1823C16.3406 18.2857 14.6142 17.7361 12.8182 17.5816C14.2104 13.2187 18.6654 10.0193 23.9557 10.0193C24.5202 10.0193 25.072 10.0672 25.6124 10.139C26.6882 10.2782 27.7134 10.5428 28.6702 10.9283C30.4557 11.6454 32.0109 12.7579 33.191 14.1623C34.3711 15.5667 35.1378 17.2173 35.4198 18.9606L35.4223 18.8967C35.4223 14.8019 33.0897 11.1975 29.5561 9.0942C30.5757 7.43433 32.07 6.05093 33.8838 5.08788C35.6976 4.12483 37.7645 3.6173 39.8697 3.61806ZM39.8697 0C34.4478 0 29.4169 2.50938 26.5224 6.60308C26.4123 6.58711 26.2997 6.57342 26.187 6.55631C25.4476 6.45565 24.701 6.4038 23.9532 6.40119C17.0302 6.40119 10.8603 10.5873 8.95047 16.5847L8.49484 18.0105C8.00252 18.2956 7.5317 18.6161 7.0862 18.9686C5.78955 19.9856 4.74987 21.2413 4.03727 22.6511C3.32466 24.0609 2.95568 25.592 2.9552 27.1412C2.95348 29.426 3.75298 31.6528 5.23951 33.5036C6.72603 35.3544 8.82353 36.7345 11.2324 37.4467C12.4499 37.8129 13.7257 37.9976 15.0128 37.9976H49.3733C50.4111 37.9976 51.4628 37.8881 52.5032 37.6703C55.5714 37.0467 58.3118 35.4983 60.2715 33.2811C62.2312 31.0639 63.2929 28.3105 63.2812 25.4759C63.2744 23.1669 62.5611 20.9043 61.2198 18.937C59.8785 16.9697 57.9611 15.3739 55.6786 14.3251V14.235C55.6786 6.3875 48.5861 0 39.8697 0Z" fill="#C4C4C4"/>
</svg>
